<svg xmlns="http://www.w3.org/2000/svg" viewBox="0 0 64 64" width="64" height="64">
  <rect width="64" height="64" rx="12" fill="#0ACF83"/>
  <path d="M26 16h6v8h-6c-2.2 0-4-1.8-4-4s1.8-4 4-4z" fill="#1ABCFE"/>
  <path d="M32 16h6c2.2 0 4 1.8 4 4s-1.8 4-4 4h-6v-8z" fill="#F24E1E"/>
  <path d="M32 24h6c2.2 0 4 1.8 4 4s-1.8 4-4 4h-6v-8z" fill="#FF7262"/>
  <path d="M26 24h6v8h-6c-2.2 0-4-1.8-4-4s1.8-4 4-4z" fill="#A259FF"/>
  <path d="M26 32h6v4c0 2.2-1.8 4-4 4s-4-1.8-4-4 1.8-4 4-4z" fill="#0ACF83"/>
  <circle cx="38" cy="36" r="4" fill="#1ABCFE"/>
</svg>
