<svg xmlns="http://www.w3.org/2000/svg" viewBox="0 0 64 64" width="64" height="64">
  <rect width="64" height="64" rx="12" fill="#95BF47"/>
  <path d="M42.5 18.2c-.1 0-.2 0-.3.1-.1 0-2.4.7-2.4.7s-1.6-1.6-1.8-1.8c-.2-.2-.6-.1-.8-.1l-.3.1c-.1-.3-.3-.7-.5-1-.8-1.1-2-1.7-3.4-1.7h-.3c-.3-.4-.7-.6-1.1-.6-2.9 0-4.3 3.6-4.7 5.4-1.7.5-2.9.9-3 .9-.9.3-1 .3-1.1 1.2-.1.7-2.4 18.5-2.4 18.5l18.8 3.6 8.6-2.1s-5.2-22.7-5.3-22.8zm-7.4.9l-2.3.7c.2-1.7.9-3.4 1.6-4.3.3-.4.7-.8 1.2-1 .4 1.3.5 3 .5 4.6zm-1.9-5.8c.2 0 .4.1.6.2-.5.3-1 .7-1.5 1.3-1 1.3-1.8 3.3-2 5.4l-1.9.6c.6-2.7 2.3-7.5 4.8-7.5zm.9 11.5l-1.5-.5c0-.1.7-2.4.9-2.9.2-.4.5-.9.9-1.2.1.4.2.9.2 1.4 0 1.1-.3 2.2-.5 3.2zm2.4-7.5c-.4.1-.8.4-1.2.8-.5.5-.9 1.3-1.1 2.3-.2.7-.7 2.4-.7 2.4l2.9-.9c0-1.5-.1-3.2-.5-4.6h.6z" fill="white"/>
</svg>
