<svg xmlns="http://www.w3.org/2000/svg" viewBox="0 0 64 64" width="64" height="64">
  <rect width="64" height="64" rx="12" fill="#96588A"/>
  <path d="M48 20H16c-2.2 0-4 1.8-4 4v16c0 2.2 1.8 4 4 4h32c2.2 0 4-1.8 4-4V24c0-2.2-1.8-4-4-4zm-2 18c0 1.1-.9 2-2 2H20c-1.1 0-2-.9-2-2V26c0-1.1.9-2 2-2h24c1.1 0 2 .9 2 2v12z" fill="white"/>
  <path d="M22 28c-1.1 0-2 .9-2 2s.9 2 2 2 2-.9 2-2-.9-2-2-2zm8 0c-1.1 0-2 .9-2 2s.9 2 2 2 2-.9 2-2-.9-2-2-2zm8 0c-1.1 0-2 .9-2 2s.9 2 2 2 2-.9 2-2-.9-2-2-2z" fill="white"/>
</svg>
